<svg width="18" height="18" viewBox="0 0 18 18" fill="none" xmlns="http://www.w3.org/2000/svg">
<path d="M8.09449 3.86789L9 4.77341M9.80519 5.57859L10.7107 6.48411M11.5159 7.2893L12.4214 8.19481M13.2266 9L14.1321 9.90551M15.0376 5.07568C14.7574 5.35592 14.3773 5.51335 13.981 5.51335C13.5847 5.51335 13.2046 5.35592 12.9243 5.07568C12.6441 4.79544 12.4866 4.41535 12.4866 4.01903C12.4866 3.62271 12.6441 3.24262 12.9243 2.96238L10.9624 1L1 10.9624L2.96238 12.9248C3.24256 12.6445 3.62259 12.4871 4.01887 12.487C4.41515 12.487 4.79522 12.6444 5.07546 12.9245C5.3557 13.2047 5.51316 13.5848 5.5132 13.981C5.51324 14.3773 5.35586 14.7574 5.07568 15.0376L7.03762 17L17 7.03762L15.0376 5.07568Z" stroke="white" stroke-width="0.8" stroke-linecap="round" stroke-linejoin="round"/>
</svg>
