<svg width="230" height="28" viewBox="0 0 230 28" fill="none" xmlns="http://www.w3.org/2000/svg">
<g clip-path="url(#clip0_1_121)">
<path d="M26.4742 18.4197C26.4748 20.9254 25.4972 23.3315 23.7512 25.1219C22.0052 26.9123 19.6298 27.9442 17.1348 27.9964H2.65456V24.5927H10.2494C10.2435 24.579 10.2369 24.5657 10.2295 24.5528H12.3199V19.2337H8.78683C6.33315 19.0517 4.04547 17.9211 2.4053 16.0797C0.76513 14.2384 -0.0996118 11.83 -0.00692091 9.36144C0.08577 6.89288 1.12866 4.55669 2.90226 2.84458C4.67586 1.13247 7.04183 0.17797 9.5022 0.181977H9.67309V0.166016H25.2104V3.57174H17.1328V8.84494H17.2878C19.7557 8.93637 22.092 9.9853 23.8054 11.771C25.5187 13.5568 26.4754 15.9401 26.4742 18.4197Z" fill="#439799"/>
<path d="M119.824 20.2109C119.824 18.7475 119.406 17.3148 118.619 16.0827C117.833 14.8506 116.711 13.8709 115.387 13.2598C116.664 12.5068 117.675 11.3707 118.277 10.0113C118.878 8.65186 119.041 7.13731 118.741 5.68044C118.441 4.22357 117.695 2.89757 116.606 1.88874C115.517 0.879911 114.14 0.238936 112.67 0.0558643V0.0299273H112.416C112.217 0.0119709 112 0 111.788 0C111.575 0 111.369 0.0119709 111.162 0.0299273H95.8232V27.8603H112.67V27.8444C114.606 27.7255 116.424 26.8696 117.754 25.4511C119.083 24.0327 119.823 22.1586 119.824 20.2109Z" fill="#272727"/>
<path d="M148.455 3.56975V0.166016H121.998V3.56975H126.803V24.5927H121.998V27.9964H148.455V24.5927H143.65V3.56975H148.455Z" fill="#272727"/>
<path d="M53.7975 3.56975V0.166016H27.3389V3.56975H32.1457V24.5927H27.3389V27.9964H53.7975V24.5927H48.9906V3.56975H53.7975Z" fill="#439799"/>
<path d="M201.038 24.6525C199.916 24.6525 198.841 24.2052 198.048 23.4089C197.255 22.6127 196.809 21.5328 196.809 20.4068C196.809 19.2807 197.255 18.2008 198.048 17.4046C198.841 16.6084 199.916 16.1611 201.038 16.1611C201.171 16.1611 201.304 16.1611 201.435 16.181V13.1464C201.303 13.1607 201.17 13.1681 201.038 13.1684C199.932 13.1443 198.879 12.6863 198.106 11.8925C197.332 11.0987 196.899 10.0323 196.899 8.92167C196.899 7.81105 197.332 6.74461 198.106 5.95083C198.879 5.15704 199.932 4.69905 201.038 4.67498C201.171 4.67498 201.304 4.67498 201.435 4.69493V0.169922H179.775V28.0003H201.435V24.6325C201.296 24.6445 201.171 24.6525 201.038 24.6525Z" fill="#272727"/>
<path d="M169.577 24.5946V0.169922H152.73V24.5946V25.263V28.0003H178.273V24.5946H169.577Z" fill="#272727"/>
<path d="M230 0.169922H203.299V4.33181H208.227V28.0003H225.074V4.33181H230V0.169922Z" fill="#272727"/>
<path d="M82.9866 0.0244141C82.8603 2.48948 81.7962 4.81175 80.0138 6.5118C78.2315 8.21186 75.8671 9.15991 73.4087 9.16023C70.9505 9.15988 68.5863 8.21177 66.8043 6.51167C65.0223 4.81156 63.9585 2.4893 63.8327 0.0244141H57.5713V27.7571H67.1294V20.1755H68.6157V27.7571H78.2016V20.1755H79.684V27.7571H89.2441V0.0244141H82.9866Z" fill="#439799"/>
</g>
<defs>
<clipPath id="clip0_1_121">
<rect width="230" height="28" fill="white"/>
</clipPath>
</defs>
</svg>
