<svg width="52" height="52" viewBox="0 0 52 52" fill="none" xmlns="http://www.w3.org/2000/svg">
<rect width="52" height="52" rx="26" fill="#439799"/>
<g clip-path="url(#clip0_1_8498)">
<path d="M26 52C22.4033 52 19.0233 51.3171 15.86 49.9512C12.6967 48.5853 9.945 46.7333 7.605 44.395C5.265 42.055 3.41293 39.3033 2.0488 36.14C0.684667 32.9767 0.00173333 29.5967 0 26C0 22.4033 0.682934 19.0233 2.0488 15.86C3.41467 12.6967 5.26673 9.945 7.605 7.605C9.945 5.265 12.6967 3.41293 15.86 2.0488C19.0233 0.684667 22.4033 0.00173333 26 0C29.5967 0 32.9767 0.682934 36.14 2.0488C39.3033 3.41467 42.055 5.26673 44.395 7.605C46.735 9.945 48.5879 12.6967 49.9538 15.86C51.3197 19.0233 52.0017 22.4033 52 26C52 29.5967 51.3171 32.9767 49.9512 36.14C48.5853 39.3033 46.7333 42.055 44.395 44.395C42.055 46.735 39.3033 48.5879 36.14 49.9538C32.9767 51.3197 29.5967 52.0017 26 52Z" fill="white"/>
<path d="M19.5 19.045V32.955C19.5 33.9517 19.955 34.71 20.865 35.23C21.775 35.75 22.6633 35.7067 23.53 35.1L34.32 28.21C35.1433 27.69 35.555 26.9533 35.555 26C35.555 25.0467 35.1433 24.31 34.32 23.79L23.53 16.9C22.6633 16.2933 21.775 16.25 20.865 16.77C19.955 17.29 19.5 18.0483 19.5 19.045ZM26 52C22.4033 52 19.0233 51.3171 15.86 49.9512C12.6967 48.5853 9.945 46.7333 7.605 44.395C5.265 42.055 3.41293 39.3033 2.0488 36.14C0.684667 32.9767 0.00173333 29.5967 0 26C0 22.4033 0.682934 19.0233 2.0488 15.86C3.41467 12.6967 5.26673 9.945 7.605 7.605C9.945 5.265 12.6967 3.41293 15.86 2.0488C19.0233 0.684667 22.4033 0.00173333 26 0C29.5967 0 32.9767 0.682934 36.14 2.0488C39.3033 3.41467 42.055 5.26673 44.395 7.605C46.735 9.945 48.5879 12.6967 49.9538 15.86C51.3197 19.0233 52.0017 22.4033 52 26C52 29.5967 51.3171 32.9767 49.9512 36.14C48.5853 39.3033 46.7333 42.055 44.395 44.395C42.055 46.735 39.3033 48.5879 36.14 49.9538C32.9767 51.3197 29.5967 52.0017 26 52Z" fill="#439799"/>
</g>
<defs>
<clipPath id="clip0_1_8498">
<rect width="52" height="52" fill="white"/>
</clipPath>
</defs>
</svg>
